<?xml version="1.0" encoding="utf-8"?>
<!-- Generator: Adobe Illustrator 16.0.0, SVG Export Plug-In . SVG Version: 6.00 Build 0)  -->
<!DOCTYPE svg PUBLIC "-//W3C//DTD SVG 1.1//EN" "http://www.w3.org/Graphics/SVG/1.1/DTD/svg11.dtd">
<svg version="1.1" id="Capa_1" xmlns="http://www.w3.org/2000/svg" xmlns:xlink="http://www.w3.org/1999/xlink" x="0px" y="0px"
	 width="266px" height="251px" viewBox="-5.94 69.925 266 251" enable-background="new -5.94 69.925 266 251" xml:space="preserve">
<rect x="-5.94" y="69.925" fill="#F50953" width="266" height="251"/>
<path fill="#FFFFFF" d="M126.795,122.532c10.296-24.405,33.818-41.457,61.177-41.457c36.855,0,63.397,31.528,66.734,69.102
	c0,0,1.801,9.327-2.163,26.119c-5.398,22.87-18.088,43.186-35.196,58.693l-90.552,80.792l-89.027-80.797
	C20.66,219.482,7.97,199.16,2.572,176.291c-3.965-16.792-2.164-26.119-2.164-26.119c3.337-37.574,29.88-69.102,66.734-69.102
	C94.507,81.07,116.498,98.127,126.795,122.532z"/>
</svg>
